<svg xmlns="http://www.w3.org/2000/svg" xmlns:xlink="http://www.w3.org/1999/xlink" width="500" zoomAndPan="magnify" viewBox="0 0 375 374.999991" height="500" preserveAspectRatio="xMidYMid meet" version="1.0"><defs><g/><clipPath id="2b384e5b3e"><path d="M 92 33.753906 L 282 33.753906 L 282 242.253906 L 92 242.253906 Z M 92 33.753906 " clip-rule="nonzero"/></clipPath></defs><g fill="#ffffff" fill-opacity="1"><g transform="translate(14.86542, 297.187605)"><g><path d="M 1.234375 -34.5 L 1.234375 -27.984375 L 3.949219 -27.984375 L 3.949219 -6.515625 L 1.234375 -6.515625 L 1.234375 0 L 17.226562 0 L 17.226562 -6.515625 L 14.164062 -6.515625 L 14.164062 -13.96875 L 23.542969 -13.96875 L 23.542969 -6.515625 L 20.632812 -6.515625 L 20.632812 0 L 36.671875 0 L 36.671875 -6.515625 L 33.808594 -6.515625 L 33.808594 -27.984375 L 36.671875 -27.984375 L 36.671875 -34.5 L 20.632812 -34.5 L 20.632812 -27.984375 L 23.542969 -27.984375 L 23.542969 -20.53125 L 14.164062 -20.53125 L 14.164062 -27.984375 L 17.226562 -27.984375 L 17.226562 -34.5 Z M 1.234375 -34.5 "/></g></g></g><g fill="#ffffff" fill-opacity="1"><g transform="translate(52.76757, 297.187605)"><g><path d="M 1.234375 -34.5 L 1.234375 -27.984375 L 4.34375 -27.984375 L 4.34375 -6.566406 L 1.234375 -6.566406 L 1.234375 0 L 30.996094 0 L 30.996094 -11.15625 L 22.457031 -11.15625 L 22.457031 -6.566406 L 14.5625 -6.566406 L 14.5625 -14.609375 L 23.9375 -14.609375 L 23.9375 -21.175781 L 14.5625 -21.175781 L 14.5625 -27.984375 L 22.457031 -27.984375 L 22.457031 -23.59375 L 30.996094 -23.59375 L 30.996094 -34.5 Z M 1.234375 -34.5 "/></g></g></g><g fill="#ffffff" fill-opacity="1"><g transform="translate(84.994262, 297.187605)"><g><path d="M 39.882812 0 L 39.882812 -6.464844 L 36.425781 -6.464844 L 27.691406 -34.5 L 8.738281 -34.5 L 8.738281 -28.132812 L 10.761719 -28.132812 L 4.097656 -6.464844 L 0.742188 -6.464844 L 0.742188 0 L 16.4375 0 L 16.4375 -6.464844 L 12.585938 -6.464844 L 13.621094 -9.820312 L 23.742188 -9.820312 L 24.777344 -6.464844 L 20.089844 -6.464844 L 20.089844 0 Z M 15.449219 -15.746094 L 18.65625 -26.40625 L 21.914062 -15.746094 Z M 15.449219 -15.746094 "/></g></g></g><g fill="#ffffff" fill-opacity="1"><g transform="translate(125.61076, 297.187605)"><g><path d="M 1.234375 0 L 16.089844 0 C 28.234375 0 35.042969 -6.464844 35.042969 -17.71875 C 35.042969 -27.148438 28.234375 -34.5 16.289062 -34.5 L 1.234375 -34.5 L 1.234375 -27.984375 L 4.292969 -27.984375 L 4.292969 -6.566406 L 1.234375 -6.566406 Z M 14.414062 -6.566406 L 14.414062 -27.984375 L 16.289062 -27.984375 C 21.519531 -27.984375 23.691406 -23 23.691406 -17.71875 C 23.691406 -11.550781 21.519531 -6.664062 16.289062 -6.566406 Z M 14.414062 -6.566406 "/></g></g></g><g fill="#ffffff" fill-opacity="1"><g transform="translate(161.144026, 297.187605)"><g><path d="M 1.234375 -34.5 L 1.234375 -28.035156 L 3.996094 -28.035156 L 3.996094 -6.515625 L 1.234375 -6.515625 L 1.234375 0 L 17.128906 0 L 17.128906 -6.515625 L 14.117188 -6.515625 L 14.117188 -14.164062 L 17.867188 -14.164062 C 24.925781 -14.164062 30.847656 -17.421875 30.847656 -23.9375 C 30.847656 -29.566406 28.675781 -34.5 17.226562 -34.5 Z M 14.117188 -28.085938 L 16.585938 -28.085938 C 19.445312 -28.085938 21.175781 -26.503906 21.175781 -23.59375 C 21.175781 -20.976562 19.199219 -19.496094 16.335938 -19.496094 L 14.117188 -19.496094 Z M 14.117188 -28.085938 "/></g></g></g><g fill="#ffffff" fill-opacity="1"><g transform="translate(192.729151, 297.187605)"><g><path d="M 1.234375 -34.5 L 1.234375 -27.984375 L 3.949219 -27.984375 L 3.949219 -6.515625 L 1.234375 -6.515625 L 1.234375 0 L 17.226562 0 L 17.226562 -6.515625 L 14.164062 -6.515625 L 14.164062 -13.96875 L 23.542969 -13.96875 L 23.542969 -6.515625 L 20.632812 -6.515625 L 20.632812 0 L 36.671875 0 L 36.671875 -6.515625 L 33.808594 -6.515625 L 33.808594 -27.984375 L 36.671875 -27.984375 L 36.671875 -34.5 L 20.632812 -34.5 L 20.632812 -27.984375 L 23.542969 -27.984375 L 23.542969 -20.53125 L 14.164062 -20.53125 L 14.164062 -27.984375 L 17.226562 -27.984375 L 17.226562 -34.5 Z M 1.234375 -34.5 "/></g></g></g><g fill="#ffffff" fill-opacity="1"><g transform="translate(230.6313, 297.187605)"><g><path d="M 18.410156 0.886719 C 29.566406 0.886719 35.785156 -5.921875 35.785156 -17.078125 C 35.785156 -28.183594 30.15625 -35.4375 18.066406 -35.4375 C 7.847656 -35.4375 0.742188 -28.085938 0.742188 -17.421875 C 0.742188 -5.082031 8.09375 0.886719 18.410156 0.886719 Z M 18.410156 -6.859375 C 15.25 -6.859375 12.933594 -10.957031 12.933594 -17.421875 C 12.933594 -23.542969 15.003906 -27.886719 18.015625 -27.839844 C 21.816406 -27.839844 23.445312 -23.050781 23.445312 -17.078125 C 23.445312 -10.957031 21.519531 -6.859375 18.410156 -6.859375 Z M 18.410156 -6.859375 "/></g></g></g><g fill="#ffffff" fill-opacity="1"><g transform="translate(267.151597, 297.187605)"><g><path d="M 39.042969 -28.132812 L 39.042969 -34.5 L 24.183594 -34.5 L 24.183594 -28.132812 L 27.542969 -28.132812 L 27.542969 -16.386719 L 15.449219 -34.5 L 1.285156 -34.5 L 1.285156 -28.132812 L 4.144531 -28.132812 L 4.144531 -6.367188 L 1.234375 -6.367188 L 1.234375 0 L 16.386719 0 L 16.386719 -6.367188 L 12.585938 -6.367188 L 12.585938 -18.804688 L 25.171875 0 L 35.785156 0 L 35.785156 -28.132812 Z M 39.042969 -28.132812 "/></g></g></g><g fill="#ffffff" fill-opacity="1"><g transform="translate(307.422632, 297.187605)"><g><path d="M 1.234375 -34.5 L 1.234375 -27.984375 L 4.34375 -27.984375 L 4.34375 -6.566406 L 1.234375 -6.566406 L 1.234375 0 L 17.621094 0 L 17.621094 -6.566406 L 14.5625 -6.566406 L 14.5625 -27.984375 L 17.621094 -27.984375 L 17.621094 -34.5 Z M 1.234375 -34.5 "/></g></g></g><g fill="#ffffff" fill-opacity="1"><g transform="translate(326.274988, 297.187605)"><g><path d="M 27.34375 -12.488281 C 26.898438 -11.992188 23.640625 -7.652344 19.496094 -7.652344 C 14.808594 -7.652344 12.289062 -12.042969 12.289062 -16.929688 C 12.289062 -22.308594 14.609375 -26.703125 18.164062 -26.703125 C 21.667969 -26.703125 23.246094 -23.691406 23.394531 -20.484375 L 32.230469 -20.484375 L 32.230469 -34.5 L 24.480469 -34.5 L 23.347656 -31.738281 C 22.902344 -32.328125 20.679688 -35.09375 15.746094 -35.09375 C 9.28125 -35.09375 0.742188 -28.28125 0.742188 -16.929688 C 0.742188 -5.921875 7.699219 0.789062 18.164062 0.789062 C 24.628906 0.789062 29.761719 -2.46875 33.121094 -6.167969 Z M 27.34375 -12.488281 "/></g></g></g><g fill="#ffffff" fill-opacity="1"><g transform="translate(97.066847, 331.593543)"><g><path d="M 1.21875 0 L 1.21875 -13.609375 L 11.6875 -13.609375 L 11.6875 -11.15625 L 4.046875 -11.15625 L 4.046875 -8.046875 L 9.078125 -8.046875 L 9.078125 -5.671875 L 4.046875 -5.671875 L 4.046875 -2.453125 L 11.765625 -2.453125 L 11.765625 0 Z M 1.21875 0 "/></g></g></g><g fill="#ffffff" fill-opacity="1"><g transform="translate(110.579698, 331.593543)"><g><path d="M 1.21875 -13.609375 L 3.90625 -13.609375 L 10.671875 -4.796875 L 10.671875 -13.609375 L 13.3125 -13.609375 L 13.3125 0 L 10.828125 0 L 3.890625 -9.09375 L 3.890625 0 L 1.21875 0 Z M 1.21875 -13.609375 "/></g></g></g><g fill="#ffffff" fill-opacity="1"><g transform="translate(126.114566, 331.593543)"><g><path d="M 0.34375 -11.125 L 0.34375 -13.609375 L 12.328125 -13.609375 L 12.328125 -11.125 L 7.75 -11.125 L 7.75 0 L 4.9375 0 L 4.9375 -11.125 Z M 0.34375 -11.125 "/></g></g></g><g fill="#ffffff" fill-opacity="1"><g transform="translate(139.763509, 331.593543)"><g><path d="M 1.21875 0 L 1.21875 -13.609375 L 11.6875 -13.609375 L 11.6875 -11.15625 L 4.046875 -11.15625 L 4.046875 -8.046875 L 9.078125 -8.046875 L 9.078125 -5.671875 L 4.046875 -5.671875 L 4.046875 -2.453125 L 11.765625 -2.453125 L 11.765625 0 Z M 1.21875 0 "/></g></g></g><g fill="#ffffff" fill-opacity="1"><g transform="translate(153.276361, 331.593543)"><g><path d="M 1.21875 0 L 1.21875 -13.609375 L 7.875 -13.609375 C 8.5625 -13.609375 9.191406 -13.503906 9.765625 -13.296875 C 10.335938 -13.085938 10.832031 -12.796875 11.25 -12.421875 C 11.664062 -12.054688 11.988281 -11.613281 12.21875 -11.09375 C 12.457031 -10.582031 12.578125 -10.015625 12.578125 -9.390625 C 12.578125 -8.535156 12.332031 -7.769531 11.84375 -7.09375 C 11.363281 -6.414062 10.71875 -5.914062 9.90625 -5.59375 L 12.921875 0 L 9.78125 0 L 7.109375 -5.203125 L 4.046875 -5.203125 L 4.046875 0 Z M 7.625 -11.171875 L 4.046875 -11.171875 L 4.046875 -7.515625 L 7.625 -7.515625 C 8.257812 -7.515625 8.765625 -7.679688 9.140625 -8.015625 C 9.523438 -8.359375 9.71875 -8.800781 9.71875 -9.34375 C 9.71875 -9.894531 9.523438 -10.335938 9.140625 -10.671875 C 8.765625 -11.003906 8.257812 -11.171875 7.625 -11.171875 Z M 7.625 -11.171875 "/></g></g></g><g fill="#ffffff" fill-opacity="1"><g transform="translate(167.450264, 331.593543)"><g><path d="M 0.34375 -11.125 L 0.34375 -13.609375 L 12.328125 -13.609375 L 12.328125 -11.125 L 7.75 -11.125 L 7.75 0 L 4.9375 0 L 4.9375 -11.125 Z M 0.34375 -11.125 "/></g></g></g><g fill="#ffffff" fill-opacity="1"><g transform="translate(181.099205, 331.593543)"><g><path d="M -0.078125 0 L 5.515625 -13.609375 L 8.78125 -13.609375 L 14.3125 0 L 11.25 0 L 9.875 -3.578125 L 4.25 -3.578125 L 2.859375 0 Z M 5.125 -5.828125 L 9.015625 -5.828125 L 7.09375 -10.84375 Z M 5.125 -5.828125 "/></g></g></g><g fill="#ffffff" fill-opacity="1"><g transform="translate(196.303557, 331.593543)"><g><path d="M 1.21875 0 L 1.21875 -13.609375 L 4.046875 -13.609375 L 4.046875 0 Z M 1.21875 0 "/></g></g></g><g fill="#ffffff" fill-opacity="1"><g transform="translate(202.564348, 331.593543)"><g><path d="M 1.21875 -13.609375 L 3.90625 -13.609375 L 10.671875 -4.796875 L 10.671875 -13.609375 L 13.3125 -13.609375 L 13.3125 0 L 10.828125 0 L 3.890625 -9.09375 L 3.890625 0 L 1.21875 0 Z M 1.21875 -13.609375 "/></g></g></g><g fill="#ffffff" fill-opacity="1"><g transform="translate(218.099217, 331.593543)"><g><path d="M 8.53125 -0.96875 L 3.828125 -10.015625 L 3.828125 0 L 1.21875 0 L 1.21875 -13.609375 L 4.84375 -13.609375 L 8.578125 -6.296875 L 12.296875 -13.609375 L 15.921875 -13.609375 L 15.921875 0 L 13.25 0 L 13.25 -9.984375 Z M 8.53125 -0.96875 "/></g></g></g><g fill="#ffffff" fill-opacity="1"><g transform="translate(236.219943, 331.593543)"><g><path d="M 1.21875 0 L 1.21875 -13.609375 L 11.6875 -13.609375 L 11.6875 -11.15625 L 4.046875 -11.15625 L 4.046875 -8.046875 L 9.078125 -8.046875 L 9.078125 -5.671875 L 4.046875 -5.671875 L 4.046875 -2.453125 L 11.765625 -2.453125 L 11.765625 0 Z M 1.21875 0 "/></g></g></g><g fill="#ffffff" fill-opacity="1"><g transform="translate(249.732794, 331.593543)"><g><path d="M 1.21875 -13.609375 L 3.90625 -13.609375 L 10.671875 -4.796875 L 10.671875 -13.609375 L 13.3125 -13.609375 L 13.3125 0 L 10.828125 0 L 3.890625 -9.09375 L 3.890625 0 L 1.21875 0 Z M 1.21875 -13.609375 "/></g></g></g><g fill="#ffffff" fill-opacity="1"><g transform="translate(265.267655, 331.593543)"><g><path d="M 0.34375 -11.125 L 0.34375 -13.609375 L 12.328125 -13.609375 L 12.328125 -11.125 L 7.75 -11.125 L 7.75 0 L 4.9375 0 L 4.9375 -11.125 Z M 0.34375 -11.125 "/></g></g></g><g clip-path="url(#2b384e5b3e)"><path fill="#ffa10b" d="M 236.960938 196.492188 C 230.078125 205.746094 222.722656 211.929688 220.535156 210.308594 C 218.351562 208.6875 222.164062 199.867188 229.046875 190.613281 C 235.929688 181.359375 243.28125 175.179688 245.46875 176.800781 C 247.652344 178.421875 243.84375 187.238281 236.960938 196.492188 Z M 255.023438 117.109375 C 254.839844 115.199219 254.652344 113.292969 254.4375 111.507812 C 253.828125 106.289062 252.765625 103.433594 251.210938 102.765625 C 250.605469 102.511719 249.949219 102.597656 249.410156 103.003906 C 248.339844 103.808594 247.753906 105.898438 248.011719 107.972656 C 248.398438 111.023438 248.640625 114.105469 248.769531 117.109375 L 241.90625 117.109375 C 241.914062 114.90625 241.933594 112.710938 241.949219 110.601562 C 242.097656 91.921875 241.898438 84.230469 239.277344 83.355469 C 238.679688 83.15625 238.078125 83.246094 237.578125 83.597656 C 235.34375 85.183594 235.128906 92.796875 234.960938 105.078125 C 234.902344 109.191406 234.84375 113.363281 234.660156 117.109375 L 231.441406 117.109375 C 230.949219 113.003906 230.46875 109.222656 229.839844 107.488281 C 229.601562 106.832031 229.035156 105.269531 227.804688 105.390625 C 226.195312 105.523438 225.578125 108.09375 224.21875 115.410156 C 224.113281 115.96875 224.011719 116.539062 223.902344 117.109375 L 219.859375 117.109375 C 219.664062 104.835938 218.34375 98.234375 215.84375 96.96875 C 215.105469 96.597656 214.410156 96.738281 213.988281 96.992188 C 211.175781 98.324219 211.089844 103.972656 210.964844 111.761719 C 210.941406 113.472656 210.910156 115.277344 210.847656 117.109375 L 207.742188 117.109375 C 207.628906 114.800781 207.214844 112.460938 205.902344 111.203125 C 204.949219 110.292969 204.070312 110.273438 203.503906 110.417969 C 201.648438 110.886719 200.601562 113.714844 199.769531 116.328125 C 199.667969 116.636719 199.585938 116.894531 199.523438 117.070312 C 199.519531 117.082031 199.511719 117.09375 199.507812 117.109375 L 194.960938 117.109375 C 194.714844 116.382812 194.449219 115.640625 194.132812 114.910156 C 193.480469 113.382812 191.855469 112.609375 190 112.941406 C 187.609375 113.363281 186.644531 115.113281 186.179688 117.109375 L 180.78125 117.109375 C 180.640625 115.277344 180.570312 113.417969 180.59375 111.625 C 180.65625 106.664062 179.867188 103.707031 178.238281 102.839844 C 177.519531 102.457031 176.695312 102.519531 175.976562 103.015625 C 174.675781 103.910156 173.910156 105.992188 174.160156 107.972656 C 174.542969 111.023438 174.789062 114.105469 174.914062 117.109375 L 168.054688 117.109375 C 168.0625 114.90625 168.078125 112.710938 168.097656 110.601562 C 168.246094 91.921875 168.042969 84.230469 165.425781 83.355469 C 164.832031 83.15625 164.226562 83.246094 163.726562 83.597656 C 161.492188 85.183594 161.277344 92.796875 161.109375 105.078125 C 161.054688 109.191406 160.992188 113.363281 160.808594 117.109375 L 157.585938 117.109375 C 157.09375 113.003906 156.617188 109.222656 155.988281 107.488281 C 155.75 106.832031 155.183594 105.269531 153.953125 105.390625 C 152.34375 105.523438 151.722656 108.09375 150.367188 115.410156 C 150.265625 115.96875 150.15625 116.539062 150.050781 117.109375 L 146.007812 117.109375 C 145.8125 104.835938 144.492188 98.234375 141.988281 96.96875 C 141.253906 96.597656 140.554688 96.738281 140.136719 96.992188 C 137.324219 98.324219 137.238281 103.972656 137.113281 111.761719 C 137.085938 113.472656 137.058594 115.277344 136.996094 117.109375 L 133.890625 117.109375 C 133.777344 114.800781 133.363281 112.460938 132.046875 111.203125 C 131.097656 110.292969 130.21875 110.273438 129.65625 110.417969 C 127.796875 110.886719 126.753906 113.714844 125.917969 116.324219 C 125.816406 116.636719 125.734375 116.894531 125.671875 117.070312 C 125.664062 117.082031 125.660156 117.09375 125.65625 117.109375 L 121.109375 117.109375 C 120.863281 116.382812 120.597656 115.640625 120.28125 114.910156 C 119.625 113.382812 118.003906 112.609375 116.144531 112.941406 C 113.871094 113.34375 112.707031 115.097656 112.050781 117.109375 L 109.375 117.109375 C 111.980469 102.492188 118.324219 84.574219 133.1875 70.507812 L 131.71875 69.167969 C 138.339844 62.5625 145.890625 57.121094 154.132812 53.125 L 154.46875 53.832031 C 162.179688 49.5 170.132812 47.148438 177.769531 46.058594 C 180.90625 45.660156 184.09375 45.445312 187.328125 45.445312 C 190.5625 45.445312 193.753906 45.660156 196.894531 46.058594 C 204.527344 47.148438 212.480469 49.503906 220.1875 53.832031 L 220.523438 53.125 C 228.847656 57.167969 236.472656 62.679688 243.140625 69.371094 L 241.898438 70.507812 C 256.757812 84.574219 263.105469 102.492188 265.710938 117.109375 Z M 250.609375 117.109375 C 250.476562 113.980469 250.226562 110.816406 249.839844 107.742188 C 249.617188 105.976562 250.222656 104.59375 250.480469 104.460938 C 250.492188 104.464844 251.828125 105.066406 252.609375 111.71875 C 252.8125 113.441406 252.996094 115.273438 253.171875 117.109375 Z M 245.449219 143.6875 C 245.253906 143.90625 245.070312 144.03125 244.945312 144.03125 C 244.882812 144.03125 244.710938 144.03125 244.46875 143.789062 C 242.257812 141.5625 241.90625 130.304688 241.90625 118.949219 L 248.828125 118.949219 C 249.140625 130.855469 247.601562 141.25 245.449219 143.6875 Z M 240.109375 110.585938 C 240.089844 112.855469 240.074219 115.027344 240.070312 117.109375 L 236.507812 117.109375 C 236.6875 113.347656 236.746094 109.199219 236.800781 105.105469 C 236.90625 97.398438 237.066406 85.75 238.664062 85.089844 C 240.300781 86.199219 240.191406 100.296875 240.109375 110.585938 Z M 233.339844 127.535156 C 233.261719 127.789062 233.1875 128 233.125 128.167969 C 232.585938 126.390625 232.058594 122.25 231.660156 118.949219 L 234.558594 118.949219 C 234.332031 122.46875 233.96875 125.492188 233.339844 127.535156 Z M 225.777344 117.109375 C 225.859375 116.660156 225.945312 116.203125 226.03125 115.746094 C 226.539062 113.003906 227.273438 109.054688 227.90625 107.617188 C 227.964844 107.746094 228.03125 107.914062 228.109375 108.117188 C 228.65625 109.625 229.128906 113.332031 229.585938 117.109375 Z M 222.207031 123.800781 C 221.546875 125.03125 221.148438 125.28125 221.144531 125.332031 C 220.652344 124.996094 220.058594 122.648438 219.886719 120.425781 C 219.886719 119.921875 219.882812 119.433594 219.878906 118.949219 L 223.539062 118.949219 C 223.113281 121.070312 222.65625 122.953125 222.207031 123.800781 Z M 212.691406 117.109375 C 212.753906 115.285156 212.78125 113.496094 212.808594 111.792969 C 212.902344 105.71875 213 99.433594 214.804688 98.644531 L 214.929688 98.671875 L 215.011719 98.609375 C 215.484375 98.851562 217.738281 100.851562 218.019531 117.109375 Z M 210.1875 125.773438 C 209.730469 129.109375 209.25 130.527344 208.972656 131.109375 C 208.433594 129.964844 207.726562 126.628906 207.726562 121.851562 C 207.726562 121.507812 207.738281 121.097656 207.75 120.648438 C 207.761719 120.121094 207.773438 119.546875 207.777344 118.949219 L 210.773438 118.949219 C 210.667969 121.242188 210.492188 123.550781 210.1875 125.773438 Z M 201.453125 117.109375 C 201.476562 117.035156 201.5 116.960938 201.523438 116.886719 C 201.875 115.792969 202.9375 112.460938 203.960938 112.203125 C 204.167969 112.144531 204.4375 112.355469 204.628906 112.535156 C 205.484375 113.351562 205.792969 115.230469 205.890625 117.109375 Z M 197.089844 121.929688 C 196.941406 121.84375 196.546875 121.507812 196.039062 120.207031 C 195.875 119.792969 195.722656 119.371094 195.578125 118.949219 L 198.878906 118.949219 C 198.4375 120.15625 197.761719 121.71875 197.089844 121.929688 Z M 188.085938 117.109375 C 188.453125 115.808594 189.082031 114.972656 190.324219 114.75 C 191.332031 114.574219 192.128906 114.902344 192.445312 115.636719 C 192.648438 116.117188 192.835938 116.613281 193.011719 117.109375 Z M 185.738281 120.289062 C 185.6875 120.820312 185.640625 121.34375 185.570312 121.886719 C 185.566406 121.933594 185.1875 126.714844 184.960938 128.140625 C 184.550781 130.710938 184.125 131.695312 183.910156 132.054688 C 182.929688 130.882812 181.574219 125.253906 180.941406 118.949219 L 185.875 118.949219 C 185.820312 119.402344 185.78125 119.855469 185.738281 120.289062 Z M 176.757812 117.109375 C 176.628906 113.980469 176.375 110.816406 175.988281 107.742188 C 175.808594 106.320312 176.382812 104.96875 177.019531 104.53125 C 177.230469 104.386719 177.316406 104.433594 177.371094 104.460938 C 177.914062 104.75 178.816406 106.582031 178.75 111.601562 C 178.734375 113.074219 178.800781 115.003906 178.953125 117.109375 Z M 171.597656 143.6875 C 171.40625 143.90625 171.21875 144.03125 171.09375 144.03125 C 171.03125 144.03125 170.863281 144.03125 170.617188 143.789062 C 168.40625 141.5625 168.050781 130.304688 168.054688 118.949219 L 174.976562 118.949219 C 175.289062 130.855469 173.746094 141.25 171.597656 143.6875 Z M 166.253906 110.585938 C 166.238281 112.855469 166.222656 115.027344 166.21875 117.109375 L 162.652344 117.109375 C 162.835938 113.347656 162.894531 109.199219 162.953125 105.105469 C 163.054688 97.398438 163.214844 85.75 164.8125 85.089844 C 166.449219 86.199219 166.335938 100.296875 166.253906 110.585938 Z M 159.484375 127.535156 C 159.40625 127.789062 159.335938 128 159.269531 128.167969 C 158.734375 126.390625 158.207031 122.25 157.808594 118.949219 L 160.707031 118.949219 C 160.480469 122.46875 160.113281 125.492188 159.484375 127.535156 Z M 151.921875 117.109375 C 152.007812 116.660156 152.09375 116.203125 152.179688 115.746094 C 152.6875 113.003906 153.421875 109.054688 154.054688 107.617188 C 154.117188 107.746094 154.183594 107.914062 154.257812 108.117188 C 154.800781 109.625 155.277344 113.332031 155.730469 117.109375 Z M 148.351562 123.800781 C 147.695312 125.03125 147.296875 125.28125 147.292969 125.332031 C 146.800781 124.996094 146.203125 122.648438 146.03125 120.425781 C 146.03125 119.921875 146.03125 119.433594 146.027344 118.949219 L 149.691406 118.949219 C 149.261719 121.070312 148.808594 122.953125 148.351562 123.800781 Z M 138.839844 117.109375 C 138.902344 115.285156 138.929688 113.496094 138.957031 111.792969 C 139.050781 105.71875 139.148438 99.433594 140.949219 98.644531 L 141.074219 98.671875 L 141.15625 98.609375 C 141.632812 98.851562 143.886719 100.851562 144.164062 117.109375 Z M 136.332031 125.773438 C 135.875 129.109375 135.398438 130.527344 135.121094 131.109375 C 134.582031 129.964844 133.875 126.628906 133.875 121.851562 C 133.875 121.507812 133.886719 121.097656 133.894531 120.648438 C 133.910156 120.121094 133.921875 119.546875 133.925781 118.949219 L 136.921875 118.949219 C 136.8125 121.242188 136.640625 123.550781 136.332031 125.773438 Z M 127.601562 117.109375 C 127.621094 117.035156 127.648438 116.960938 127.671875 116.882812 C 128.019531 115.789062 129.085938 112.460938 130.109375 112.203125 C 130.316406 112.144531 130.585938 112.355469 130.777344 112.535156 C 131.632812 113.351562 131.9375 115.230469 132.039062 117.109375 Z M 123.242188 121.929688 C 123.089844 121.84375 122.691406 121.507812 122.183594 120.207031 C 122.019531 119.792969 121.871094 119.371094 121.726562 118.949219 L 125.027344 118.949219 C 124.582031 120.15625 123.90625 121.71875 123.242188 121.929688 Z M 113.996094 117.109375 C 114.5 115.839844 115.25 114.96875 116.46875 114.75 C 117.480469 114.574219 118.273438 114.902344 118.589844 115.636719 C 118.796875 116.117188 118.984375 116.613281 119.160156 117.109375 Z M 128.867188 176.800781 C 131.050781 175.179688 138.402344 181.359375 145.289062 190.613281 C 152.171875 199.867188 155.980469 208.6875 153.796875 210.308594 C 151.613281 211.929688 144.257812 205.746094 137.375 196.492188 C 130.488281 187.238281 126.679688 178.421875 128.867188 176.800781 Z M 273.667969 173.96875 C 276.324219 165.550781 278.03125 156.625 278.644531 147.359375 L 281.058594 148.070312 C 283.164062 95.488281 259.296875 70.304688 259.296875 70.304688 C 254.054688 64.324219 250.980469 63.734375 249.484375 64.042969 C 241.890625 56.152344 233.105469 49.691406 223.46875 45.035156 C 222.945312 43.632812 221.167969 41.554688 215.832031 39.183594 C 215.832031 39.183594 206.308594 34.515625 189.570312 33.835938 L 189.570312 33.75 C 188.808594 33.746094 188.0625 33.753906 187.328125 33.769531 C 186.589844 33.753906 185.847656 33.746094 185.082031 33.75 L 185.082031 33.835938 C 168.34375 34.515625 158.824219 39.183594 158.824219 39.183594 C 153.488281 41.554688 151.707031 43.632812 151.1875 45.035156 C 141.570312 49.683594 132.800781 56.125 125.21875 63.988281 C 123.609375 63.863281 120.621094 64.789062 115.789062 70.304688 C 115.789062 70.304688 91.921875 95.488281 94.027344 148.070312 L 96.015625 147.484375 C 96.636719 156.664062 98.324219 165.507812 100.949219 173.855469 C 93.976562 176.632812 92.847656 183.777344 92.847656 183.777344 C 106.621094 219.742188 135.417969 242.257812 135.417969 242.257812 C 146.0625 239.445312 149.191406 232.878906 149.191406 232.878906 C 149.175781 232.859375 149.15625 232.84375 149.140625 232.824219 C 151.964844 233.019531 154.449219 232.4375 156.398438 230.960938 C 164.550781 224.8125 160.410156 205.613281 147.152344 188.082031 C 133.890625 170.554688 116.539062 161.332031 108.386719 167.480469 C 108.066406 167.722656 107.769531 167.996094 107.488281 168.277344 C 105.398438 160.941406 104.105469 153.210938 103.683594 145.222656 L 108 143.949219 C 108 143.949219 106.769531 133.242188 109.066406 118.949219 L 111.582031 118.949219 C 111.402344 119.855469 111.289062 120.753906 111.1875 121.546875 L 111.105469 122.175781 L 112.933594 122.421875 L 113.011719 121.78125 C 113.140625 120.777344 113.28125 119.816406 113.46875 118.949219 L 119.785156 118.949219 C 120 119.597656 120.21875 120.242188 120.464844 120.878906 C 121.015625 122.277344 121.605469 123.117188 122.328125 123.53125 C 122.871094 123.835938 123.453125 123.886719 124.015625 123.667969 C 125.394531 123.136719 126.25 121.105469 126.980469 118.949219 L 132.082031 118.949219 C 132.078125 119.554688 132.066406 120.125 132.054688 120.605469 C 132.042969 121.074219 132.035156 121.496094 132.035156 121.851562 C 132.035156 123 132.117188 133.0625 135.039062 133.261719 C 136.3125 133.347656 137.320312 132.148438 138.160156 126.027344 C 138.476562 123.710938 138.65625 121.316406 138.769531 118.949219 L 144.1875 118.949219 C 144.191406 119.453125 144.191406 119.964844 144.191406 120.492188 C 144.367188 122.796875 144.949219 126.71875 146.890625 127.128906 C 148.3125 127.433594 149.332031 125.871094 149.976562 124.671875 C 150.566406 123.5625 151.074219 121.441406 151.570312 118.949219 L 155.953125 118.949219 C 157.070312 128.148438 157.59375 130.523438 159.132812 130.660156 C 160.25 130.761719 160.816406 129.476562 161.246094 128.078125 C 161.929688 125.867188 162.3125 122.652344 162.550781 118.949219 L 166.214844 118.949219 C 166.21875 133.117188 166.71875 142.476562 169.308594 145.082031 C 170.359375 146.140625 171.871094 146.160156 172.980469 144.90625 C 175.664062 141.863281 177.132812 130.855469 176.820312 118.949219 L 179.109375 118.949219 C 179.765625 125.878906 181.308594 133.8125 183.828125 134.027344 C 185.257812 134.144531 186.125 132.53125 186.78125 128.425781 C 187.015625 126.933594 187.390625 122.226562 187.398438 122.078125 C 187.46875 121.566406 187.519531 121.015625 187.574219 120.457031 C 187.621094 119.921875 187.671875 119.421875 187.734375 118.949219 L 193.636719 118.949219 C 193.851562 119.597656 194.070312 120.242188 194.320312 120.878906 C 194.867188 122.277344 195.457031 123.117188 196.183594 123.53125 C 196.726562 123.835938 197.308594 123.886719 197.867188 123.667969 C 199.246094 123.136719 200.101562 121.105469 200.832031 118.949219 L 205.933594 118.949219 C 205.933594 119.554688 205.917969 120.125 205.90625 120.605469 C 205.898438 121.074219 205.886719 121.496094 205.886719 121.851562 C 205.886719 123 205.972656 133.0625 208.886719 133.261719 C 210.152344 133.332031 211.167969 132.148438 212.011719 126.027344 C 212.328125 123.710938 212.511719 121.316406 212.621094 118.949219 L 218.039062 118.949219 C 218.042969 119.453125 218.046875 119.964844 218.046875 120.492188 C 218.21875 122.796875 218.800781 126.71875 220.742188 127.128906 C 222.167969 127.433594 223.1875 125.871094 223.828125 124.671875 C 224.421875 123.5625 224.925781 121.441406 225.421875 118.949219 L 229.804688 118.949219 C 230.917969 128.148438 231.445312 130.523438 232.988281 130.660156 C 234.105469 130.761719 234.667969 129.476562 235.101562 128.078125 C 235.777344 125.867188 236.167969 122.652344 236.402344 118.949219 L 240.066406 118.949219 C 240.070312 133.117188 240.574219 142.476562 243.164062 145.082031 C 243.675781 145.597656 244.292969 145.871094 244.945312 145.871094 C 245.632812 145.871094 246.265625 145.546875 246.832031 144.90625 C 249.511719 141.867188 250.984375 130.855469 250.671875 118.949219 L 253.347656 118.949219 C 254.371094 129.554688 254.96875 133.601562 256.988281 133.824219 C 258.300781 133.976562 259.3125 132.492188 260.597656 128.570312 L 258.847656 127.996094 C 258.015625 130.535156 257.457031 131.480469 257.183594 131.832031 C 256.324219 130.378906 255.683594 123.96875 255.203125 118.949219 L 266.019531 118.949219 C 268.316406 133.242188 267.089844 143.949219 267.089844 143.949219 L 270.972656 145.097656 C 270.558594 153.222656 269.234375 161.078125 267.097656 168.523438 C 266.742188 168.144531 266.363281 167.796875 265.949219 167.480469 C 257.796875 161.332031 240.445312 170.554688 227.183594 188.082031 C 213.925781 205.613281 209.785156 224.8125 217.933594 230.960938 C 219.886719 232.4375 222.371094 233.019531 225.195312 232.824219 C 225.175781 232.84375 225.160156 232.859375 225.144531 232.878906 C 225.144531 232.878906 228.273438 239.445312 238.914062 242.257812 C 238.914062 242.257812 267.714844 219.742188 281.484375 183.777344 C 281.484375 183.777344 280.390625 176.824219 273.667969 173.96875 " fill-opacity="1" fill-rule="nonzero"/></g></svg>